<svg width="1440" height="545" viewBox="0 0 1440 545" fill="none" xmlns="http://www.w3.org/2000/svg">
<path d="M1258.89 282.941C1396.35 241.81 1438.24 289.43 1442 318.382V545H-32.6131C-35.3486 504.402 -24.8169 414.12 39.1941 377.782C119.208 332.358 108.95 361.309 178.192 361.309C247.435 361.309 227.945 361.309 280.774 318.382C333.604 275.454 424.902 248 516.199 248C607.497 248 674.175 318.382 790.606 361.309C907.036 404.237 909.6 347.832 1003.98 361.309C1098.35 374.787 1087.07 334.355 1258.89 282.941Z" fill="#141428"/>
<path d="M254.5 142L255.735 146.837H259.731L256.498 149.826L257.733 154.663L254.5 151.674L251.267 154.663L252.502 149.826L249.269 146.837H253.265L254.5 142Z" fill="#C4C4C4"/>
<path d="M100.5 197L101.735 201.837H105.731L102.498 204.826L103.733 209.663L100.5 206.674L97.2672 209.663L98.502 204.826L95.2692 201.837H99.2652L100.5 197Z" fill="#C4C4C4"/>
<path d="M367.5 322L368.735 326.837H372.731L369.498 329.826L370.733 334.663L367.5 331.674L364.267 334.663L365.502 329.826L362.269 326.837H366.265L367.5 322Z" fill="#C4C4C4"/>
<path d="M399.5 0L400.735 4.83688H404.731L401.498 7.82624L402.733 12.6631L399.5 9.67376L396.267 12.6631L397.502 7.82624L394.269 4.83688H398.265L399.5 0Z" fill="#C4C4C4"/>
<path d="M1415.5 336L1416.73 340.837H1420.73L1417.5 343.826L1418.73 348.663L1415.5 345.674L1412.27 348.663L1413.5 343.826L1410.27 340.837H1414.27L1415.5 336Z" fill="#C4C4C4"/>
<path d="M1161.5 14L1162.73 18.8369H1166.73L1163.5 21.8262L1164.73 26.6631L1161.5 23.6738L1158.27 26.6631L1159.5 21.8262L1156.27 18.8369H1160.27L1161.5 14Z" fill="#C4C4C4"/>
<path d="M1077.5 183L1078.73 187.837H1082.73L1079.5 190.826L1080.73 195.663L1077.5 192.674L1074.27 195.663L1075.5 190.826L1072.27 187.837H1076.27L1077.5 183Z" fill="#C4C4C4"/>
<path d="M1316.5 149L1317.73 153.837H1321.73L1318.5 156.826L1319.73 161.663L1316.5 158.674L1313.27 161.663L1314.5 156.826L1311.27 153.837H1315.27L1316.5 149Z" fill="#C4C4C4"/>
</svg>
